<svg width="46" height="47" viewBox="0 0 46 47" fill="none" xmlns="http://www.w3.org/2000/svg">
<path d="M43.18 43.9495C42.74 44.3895 42.14 44.6395 41.51 44.6395C40.88 44.6395 40.28 44.3995 39.84 43.9495L30.01 34.1195C29.84 33.9495 29.61 33.8595 29.38 33.8595C29.2 33.8595 29.03 33.9095 28.87 34.0195C25.98 36.0195 22.58 37.0795 19.04 37.0795C14.43 37.0795 10.09 35.2795 6.83 32.0195C0.0999999 25.2895 0.1 14.3395 6.84 7.60953C10.1 4.34953 14.44 2.54953 19.05 2.54953C23.66 2.54953 28 4.34953 31.26 7.60953C37.17 13.5195 38.01 22.7795 33.25 29.6395C33.01 29.9895 33.05 30.4695 33.35 30.7795L43.18 40.6195C43.62 41.0595 43.87 41.6595 43.87 42.2895C43.87 42.9195 43.63 43.5195 43.18 43.9595M44.44 39.3595L35.12 30.0395C39.9 22.5495 38.85 12.6995 32.51 6.35953C28.91 2.74953 24.13 0.769531 19.04 0.769531C13.95 0.769531 9.17 2.74953 5.58 6.34953C1.98 9.93953 0 14.7295 0 19.8095C0 24.8895 1.98 29.6795 5.58 33.2795C9.18 36.8795 13.96 38.8595 19.04 38.8595C22.69 38.8595 26.21 37.8395 29.26 35.8895L38.58 45.2095C39.36 45.9895 40.4 46.4195 41.51 46.4195C42.62 46.4195 43.66 45.9895 44.44 45.2095C45.22 44.4295 45.65 43.3895 45.65 42.2795C45.65 41.1695 45.22 40.1295 44.44 39.3495" fill="white"/>
<path d="M22.8101 6.38998C22.3401 6.25998 21.8501 6.52998 21.7101 7.00998C21.5701 7.48998 21.8501 7.96998 22.3301 8.10998C27.5601 9.56998 31.2101 14.39 31.2101 19.82C31.2101 26.53 25.7501 31.98 19.0501 31.98C12.3501 31.98 6.89011 26.52 6.89011 19.82C6.89011 14.39 10.5401 9.56998 15.7701 8.10998C16.2401 7.97998 16.5201 7.48998 16.3901 7.00998C16.2601 6.53998 15.7701 6.25998 15.2901 6.38998C12.4201 7.18998 9.83011 8.94998 8.00011 11.32C6.11011 13.77 5.11011 16.71 5.11011 19.82C5.11011 27.51 11.3601 33.76 19.0501 33.76C26.7401 33.76 32.9901 27.51 32.9901 19.82C32.9901 16.72 31.9901 13.78 30.1001 11.32C28.2701 8.93998 25.6801 7.18998 22.8101 6.38998Z" fill="white"/>
<path d="M19.0401 19.8095C18.7601 19.8095 18.5001 19.9394 18.3301 20.1594L15.4701 23.8895L12.2101 15.3995C12.0301 14.9394 11.5201 14.7094 11.0601 14.8894C10.6001 15.0694 10.3701 15.5795 10.5501 16.0395L14.3701 26.0094C14.4901 26.3095 14.7501 26.5294 15.0701 26.5694C15.3901 26.6194 15.7101 26.4894 15.9001 26.2294L19.0201 22.1594L22.1401 26.2294C22.3101 26.4494 22.5701 26.5794 22.8501 26.5794C22.8901 26.5794 22.9401 26.5794 22.9801 26.5794C23.3001 26.5294 23.5701 26.3195 23.6801 26.0195L27.5001 16.0494C27.6801 15.5894 27.4501 15.0795 26.9901 14.8994C26.5301 14.7194 26.0201 14.9495 25.8401 15.4095L22.5801 23.8994L19.7201 20.1694C19.5501 19.9494 19.2901 19.8194 19.0101 19.8194" fill="white"/>
<path d="M19.0399 7.64914C19.5299 7.64914 19.9299 7.24914 19.9299 6.75914C19.9299 6.26914 19.5299 5.86914 19.0399 5.86914C18.5499 5.86914 18.1499 6.26914 18.1499 6.75914C18.1499 7.24914 18.5499 7.64914 19.0399 7.64914Z" fill="white"/>
</svg>
