<svg width="54" height="53" viewBox="0 0 54 53" fill="none" xmlns="http://www.w3.org/2000/svg">
<path d="M50.53 34.4498C50.53 36.0698 49.21 37.3898 47.59 37.3898C47.04 37.3898 46.59 36.9398 46.59 36.3898V26.3798C46.59 25.8298 47.04 25.3798 47.59 25.3798C49.21 25.3798 50.53 26.6998 50.53 28.3098V34.4598V34.4498ZM35.96 49.1298C35.83 49.7298 35.3 50.1598 34.68 50.1598H30.74C30.39 50.1598 30.07 50.0198 29.82 49.7798C29.57 49.5398 29.44 49.2098 29.44 48.8598C29.44 48.3498 29.74 47.8898 30.2 47.6798C30.37 47.5998 30.55 47.5598 30.74 47.5598H34.68C35.03 47.5598 35.35 47.6898 35.6 47.9398C35.85 48.1798 35.98 48.5098 35.98 48.8598C35.98 48.9498 35.98 49.0498 35.95 49.1298M6.48 26.3698V36.3798C6.48 36.9298 6.03 37.3798 5.48 37.3798C3.86 37.3798 2.54 36.0598 2.54 34.4398V28.2898C2.54 26.6698 3.86 25.3598 5.48 25.3598C6.03 25.3598 6.48 25.8098 6.48 26.3598M49.82 23.2898C49.61 17.3798 47.22 11.8598 43.02 7.65984C38.61 3.25984 32.76 0.839844 26.54 0.839844C13.97 0.839844 3.7 10.8398 3.26 23.2998C1.34 24.1498 0 26.0698 0 28.2998V34.4498C0 37.4698 2.45 39.9198 5.47 39.9198C7.42 39.9198 9.01 38.3298 9.01 36.3798V26.3698C9.01 24.5398 7.6 23.0398 5.82 22.8598C6.48 12.0098 15.52 3.37984 26.54 3.37984C32.08 3.37984 37.3 5.53984 41.22 9.46984C44.82 13.0698 46.93 17.7698 47.25 22.8698C45.46 23.0498 44.06 24.5398 44.06 26.3798V36.3898C44.06 38.2398 45.49 39.7398 47.3 39.8998V42.4298C47.3 45.2798 44.98 47.5998 42.13 47.5998H38.3C38.11 47.0598 37.82 46.5698 37.41 46.1598C36.69 45.4298 35.72 45.0298 34.69 45.0298H30.75C30.18 45.0298 29.64 45.1498 29.14 45.3798C27.78 45.9998 26.91 47.3698 26.91 48.8698C26.91 49.8998 27.31 50.8598 28.03 51.5798C28.76 52.3098 29.72 52.7098 30.75 52.7098H34.69C36.33 52.7098 37.77 51.6498 38.3 50.1398H42.12C46.37 50.1398 49.82 46.6798 49.82 42.4398V39.4598C51.73 38.5998 53.06 36.6898 53.06 34.4698V28.3198C53.06 26.0898 51.72 24.1698 49.8 23.3198" fill="white"/>
<path d="M26.2199 32.7199L21.1099 37.8099C21.1099 37.8099 21.0699 37.8499 21.0199 37.8299C20.9599 37.8099 20.9599 37.7699 20.9599 37.7299V33.6199C20.9599 32.9199 20.3899 32.3499 19.6899 32.3499H18.3199C16.7499 32.3499 15.4799 31.0799 15.4799 29.5099V18.5499C15.4799 16.9799 16.7499 15.7099 18.3199 15.7099H34.7599C35.5199 15.7099 36.2299 16.0099 36.7699 16.5399C37.3099 17.0799 37.5999 17.7899 37.5999 18.5499V29.5099C37.5999 31.0799 36.3299 32.3499 34.7599 32.3499H27.1099C26.7699 32.3499 26.4499 32.4799 26.2199 32.7199ZM34.7599 34.8899C37.7299 34.8899 40.1399 32.4799 40.1399 29.5099V18.5499C40.1399 17.1199 39.5799 15.7699 38.5599 14.7499C37.5399 13.7299 36.1899 13.1699 34.7599 13.1699H18.3199C15.3499 13.1699 12.9399 15.5799 12.9399 18.5499V29.5099C12.9399 32.4799 15.3499 34.8899 18.3199 34.8899H18.4199V37.7299C18.4199 38.8099 19.0699 39.7799 20.0699 40.1799C20.3899 40.3099 20.7299 40.3699 21.0599 40.3699C21.7499 40.3699 22.4199 40.0999 22.9199 39.5799L27.6499 34.8799H34.7699L34.7599 34.8899Z" fill="white"/>
<path d="M20.37 22.3594C19.34 22.3594 18.5 23.1994 18.5 24.2294C18.5 25.2594 19.34 26.0994 20.37 26.0994C21.4 26.0994 22.24 25.2594 22.24 24.2294C22.24 23.1994 21.4 22.3594 20.37 22.3594Z" fill="white"/>
<path d="M26.5399 22.3594C25.5099 22.3594 24.6699 23.1994 24.6699 24.2294C24.6699 25.2594 25.5099 26.0994 26.5399 26.0994C27.5699 26.0994 28.4099 25.2594 28.4099 24.2294C28.4099 23.1994 27.5699 22.3594 26.5399 22.3594Z" fill="white"/>
<path d="M32.7001 22.3594C31.6701 22.3594 30.8301 23.1994 30.8301 24.2294C30.8301 25.2594 31.6701 26.0994 32.7001 26.0994C33.7301 26.0994 34.5701 25.2594 34.5701 24.2294C34.5701 23.1994 33.7301 22.3594 32.7001 22.3594Z" fill="white"/>
</svg>
