<svg width="47" height="52" viewBox="0 0 47 52" fill="none" xmlns="http://www.w3.org/2000/svg">
<path d="M12.43 22.03C12.43 22.17 12.32 22.28 12.18 22.28H1.74C1.6 22.28 1.49 22.17 1.49 22.03V16.49C1.49 16.35 1.6 16.24 1.74 16.24H12.18C12.32 16.24 12.43 16.35 12.43 16.49V22.03ZM8.32 48.92C8.32 49.67 7.71 50.27 6.96 50.27C6.21 50.27 5.61 49.66 5.61 48.92V23.78H8.32V48.92ZM12.18 14.75H9.81V3.55996C9.82 1.98996 8.54 0.709961 6.96 0.709961C5.38 0.709961 4.11 1.98996 4.11 3.55996V7.64996C4.11 8.05996 4.44 8.39996 4.86 8.39996C5.28 8.39996 5.61 8.06996 5.61 7.64996V3.55996C5.61 2.80996 6.22 2.19996 6.96 2.19996C7.7 2.19996 8.32 2.80996 8.32 3.55996V14.74H5.61V11.14C5.61 10.73 5.27 10.39 4.86 10.39C4.45 10.39 4.11 10.72 4.11 11.14V14.74H1.74C0.78 14.74 0 15.52 0 16.48V22.02C0 22.98 0.78 23.77 1.74 23.77H4.11V48.91C4.11 50.48 5.39 51.76 6.96 51.76C8.53 51.76 9.81 50.48 9.81 48.91V23.77H12.18C13.14 23.77 13.92 22.99 13.92 22.02V16.48C13.92 15.52 13.14 14.74 12.18 14.74" fill="white"/>
<path d="M28.9 35.99C28.9 36.13 28.79 36.24 28.65 36.24H18.21C18.07 36.24 17.96 36.13 17.96 35.99V30.45C17.96 30.31 18.07 30.2 18.21 30.2H28.65C28.79 30.2 28.9 30.31 28.9 30.45V35.99ZM24.79 48.92C24.79 49.67 24.18 50.28 23.44 50.28C22.7 50.28 22.08 49.67 22.08 48.92V37.74H24.79V48.92ZM22.08 3.55996C22.08 2.80996 22.69 2.20996 23.44 2.20996C24.19 2.20996 24.79 2.81996 24.79 3.55996V28.7H22.08V3.55996ZM28.66 28.7H26.29V3.55996C26.29 1.98996 25.01 0.709961 23.44 0.709961C21.87 0.709961 20.59 1.98996 20.59 3.55996V28.7H18.22C17.26 28.7 16.47 29.48 16.47 30.45V35.99C16.47 36.95 17.25 37.74 18.22 37.74H20.59V48.92C20.59 50.49 21.87 51.77 23.44 51.77C25.01 51.77 26.29 50.49 26.29 48.92V37.74H28.66C29.62 37.74 30.41 36.96 30.41 35.99V30.45C30.41 29.49 29.63 28.7 28.66 28.7Z" fill="white"/>
<path d="M45.3699 22.03C45.3699 22.17 45.2599 22.28 45.1199 22.28H34.6799C34.5399 22.28 34.4299 22.17 34.4299 22.03V16.49C34.4299 16.35 34.5399 16.24 34.6799 16.24H45.1199C45.2599 16.24 45.3699 16.35 45.3699 16.49V22.03ZM38.5499 3.56996C38.5499 2.81996 39.1599 2.20996 39.8999 2.20996C40.6399 2.20996 41.2499 2.81996 41.2499 3.56996V14.75H38.5399V3.55996L38.5499 3.56996ZM45.1199 14.75H42.7499V3.55996C42.7499 1.98996 41.4699 0.709961 39.8999 0.709961C38.3299 0.709961 37.0499 1.98996 37.0499 3.55996V14.74H34.6799C33.7199 14.74 32.9399 15.52 32.9399 16.48V22.02C32.9399 22.98 33.7199 23.77 34.6799 23.77H37.0499V48.91C37.0499 50.48 38.3299 51.76 39.8999 51.76C41.4699 51.76 42.7499 50.48 42.7499 48.91V36.24C42.7499 35.83 42.4199 35.49 41.9999 35.49C41.5799 35.49 41.2499 35.82 41.2499 36.24V48.91C41.2499 49.66 40.6399 50.26 39.8999 50.26C39.1599 50.26 38.5499 49.65 38.5499 48.91V23.77H41.2599V32.75C41.2599 33.16 41.5999 33.5 42.0099 33.5C42.4199 33.5 42.7599 33.17 42.7599 32.75V23.77H45.1299C46.0899 23.77 46.8699 22.99 46.8699 22.02V16.48C46.8699 15.52 46.0899 14.74 45.1299 14.74" fill="white"/>
</svg>
