<svg width="52" height="52" viewBox="0 0 52 52" fill="none" xmlns="http://www.w3.org/2000/svg">
<path d="M49.83 46.79C49.83 48.46 48.47 49.83 46.79 49.83H45.37C46.01 48.98 46.39 47.93 46.39 46.79V30.48C46.39 29.92 45.94 29.47 45.38 29.47C44.82 29.47 44.37 29.92 44.37 30.48V46.79C44.37 48.46 43.01 49.83 41.33 49.83H9.93C8.26 49.83 6.89 48.47 6.89 46.79V46.38H8.31C10.21 46.38 11.75 44.84 11.75 42.94C11.75 41.04 10.2 39.5 8.31 39.5H6.89V29.37H8.31C10.21 29.37 11.75 27.83 11.75 25.93C11.75 24.03 10.2 22.49 8.31 22.49H6.89V12.36H8.31C10.21 12.36 11.75 10.82 11.75 8.92C11.75 7.02 10.2 5.48 8.31 5.48H6.89V5.07C6.89 3.4 8.25 2.03 9.93 2.03H41.33C43 2.03 44.37 3.39 44.37 5.07V21.38C44.37 21.94 44.82 22.39 45.38 22.39C45.94 22.39 46.39 21.94 46.39 21.38V5.06C46.39 3.92 46.01 2.87 45.37 2.02H46.79C48.46 2.02 49.83 3.38 49.83 5.06V46.79ZM2.03 42.94C2.03 42.16 2.67 41.52 3.45 41.52H8.31C9.09 41.52 9.73 42.16 9.73 42.94C9.73 43.72 9.09 44.36 8.31 44.36H3.44C2.66 44.36 2.02 43.72 2.02 42.94M2.02 25.92C2.02 25.14 2.66 24.5 3.44 24.5H8.3C9.08 24.5 9.72 25.14 9.72 25.92C9.72 26.7 9.08 27.34 8.3 27.34H3.44C2.66 27.34 2.02 26.7 2.02 25.92ZM2.02 8.91C2.02 8.13 2.66 7.49 3.44 7.49H8.3C9.08 7.49 9.72 8.13 9.72 8.91C9.72 9.69 9.08 10.33 8.3 10.33H3.44C2.66 10.33 2.02 9.69 2.02 8.91ZM46.79 0H9.93C7.13 0 4.86 2.27 4.86 5.06V5.47H3.44C1.54 5.47 0 7.01 0 8.91C0 10.81 1.54 12.35 3.44 12.35H4.86V22.48H3.44C1.54 22.48 0 24.03 0 25.92C0 27.81 1.54 29.36 3.44 29.36H4.86V39.49H3.44C1.54 39.49 0 41.03 0 42.93C0 44.83 1.54 46.37 3.44 46.37H4.86V46.78C4.86 49.57 7.13 51.84 9.92 51.84H46.79C49.58 51.84 51.85 49.57 51.85 46.78V5.06C51.86 2.27 49.58 0 46.79 0Z" fill="white"/>
<path d="M15.7499 35.2601C16.2199 30.5901 19.9399 26.8701 24.6099 26.4001V30.0501C24.6099 30.6101 25.0599 31.0601 25.6199 31.0601C26.1799 31.0601 26.6299 30.6101 26.6299 30.0501V26.4001C31.2999 26.8801 35.0199 30.6001 35.4899 35.2601H15.7499ZM22.5899 21.2801V19.6401C22.5899 17.9701 23.9499 16.6001 25.6299 16.6001C27.3099 16.6001 28.6699 17.9601 28.6699 19.6401V21.2801C28.6699 22.9501 27.3099 24.3201 25.6299 24.3201C23.9499 24.3201 22.5899 22.9601 22.5899 21.2801ZM29.1999 24.8601C30.1199 23.9401 30.6899 22.6801 30.6899 21.2801V19.6401C30.6899 16.8501 28.4199 14.5801 25.6299 14.5801C22.8399 14.5801 20.5699 16.8501 20.5699 19.6401V21.2801C20.5699 22.6801 21.1399 23.9501 22.0599 24.8601C17.2099 26.3801 13.6799 30.9201 13.6799 36.2701C13.6799 36.8301 14.1299 37.2801 14.6899 37.2801H36.5699C37.1299 37.2801 37.5799 36.8301 37.5799 36.2701C37.5799 30.9201 34.0499 26.3901 29.1999 24.8701" fill="white"/>
<path d="M32.19 40.9297H19.05C18.49 40.9297 18.04 41.3797 18.04 41.9397C18.04 42.4997 18.49 42.9497 19.05 42.9497H32.19C32.75 42.9497 33.2 42.4997 33.2 41.9397C33.2 41.3797 32.75 40.9297 32.19 40.9297Z" fill="white"/>
<path d="M45.3701 24.9199C45.1001 24.9199 44.8401 25.0299 44.6501 25.2199C44.4601 25.4099 44.3501 25.6699 44.3501 25.9399C44.3501 26.2099 44.4601 26.4699 44.6501 26.6599C44.8401 26.8499 45.1001 26.9599 45.3701 26.9599C45.6401 26.9599 45.9001 26.8499 46.0901 26.6599C46.2801 26.4699 46.3901 26.2099 46.3901 25.9399C46.3901 25.6699 46.2801 25.4099 46.0901 25.2199C45.9001 25.0299 45.6401 24.9199 45.3701 24.9199Z" fill="white"/>
</svg>
