<svg width="33" height="33" viewBox="0 0 33 33" fill="none" xmlns="http://www.w3.org/2000/svg">
<path d="M15.0549 22.34C15.2349 22.52 15.4749 22.62 15.7249 22.62C15.9749 22.62 16.2149 22.52 16.3949 22.34L19.7649 18.97C20.1349 18.6 20.1349 18 19.7649 17.63C19.3949 17.26 18.7949 17.26 18.4249 17.63L15.7249 20.33L14.4949 19.1C14.1249 18.73 13.5249 18.73 13.1549 19.1C12.7849 19.47 12.7849 20.07 13.1549 20.44L15.0549 22.34Z" fill="white"/>
<path d="M16.4548 14.3802C19.5448 14.3802 22.0648 16.9002 22.0648 19.9902C22.0648 23.0802 19.5448 25.6002 16.4548 25.6002C13.3648 25.6002 10.8448 23.0802 10.8448 19.9902C10.8448 16.9002 13.3648 14.3802 16.4548 14.3802ZM16.4548 27.4902C20.5948 27.4902 23.9548 24.1302 23.9548 19.9902C23.9548 15.8502 20.5948 12.4902 16.4548 12.4902C12.3148 12.4902 8.95483 15.8502 8.95483 19.9902C8.95483 24.1302 12.3148 27.4902 16.4548 27.4902Z" fill="white"/>
<path d="M2.71495 5.07C2.71495 4.43 3.23495 3.9 3.88495 3.9H5.60495V4.97C5.60495 5.49 6.02495 5.91 6.54495 5.91C7.06495 5.91 7.48495 5.49 7.48495 4.97V3.9H9.34495V4.97C9.34495 5.49 9.76495 5.91 10.285 5.91C10.805 5.91 11.235 5.49 11.235 4.97V3.9H21.665V4.97C21.665 5.49 22.085 5.91 22.605 5.91C23.125 5.91 23.555 5.49 23.555 4.97V3.9H25.415V4.97C25.415 5.49 25.835 5.91 26.355 5.91C26.875 5.91 27.295 5.49 27.295 4.97V3.9H29.015C29.655 3.9 30.185 4.42 30.185 5.07V7.98H2.71495V5.07ZM30.205 28.95C30.205 29.59 29.6849 30.12 29.035 30.12H3.88495C3.24495 30.12 2.71495 29.6 2.71495 28.95V9.87H30.205V28.94V28.95ZM29.035 2.02H27.315V0.94C27.315 0.42 26.885 0 26.365 0C25.845 0 25.425 0.42 25.425 0.94V2.01H23.565V0.94C23.565 0.42 23.145 0 22.615 0C22.085 0 21.675 0.42 21.675 0.94V2.01H11.245V0.94C11.245 0.42 10.815 0 10.295 0C9.77495 0 9.35495 0.42 9.35495 0.94V2.01H7.49495V0.94C7.49495 0.42 7.07495 0 6.54495 0C6.01495 0 5.60495 0.42 5.60495 0.94V2.01H3.88495C2.20495 2.01 0.824951 3.38 0.824951 5.07V28.95C0.824951 30.64 2.19495 32.01 3.88495 32.01H29.035C30.715 32.01 32.095 30.64 32.095 28.95V5.07C32.095 3.39 30.725 2.01 29.035 2.01" fill="white"/>
</svg>
