<svg width="37" height="37" viewBox="0 0 37 37" fill="none" xmlns="http://www.w3.org/2000/svg">
<path d="M29.53 30.3998C28.95 28.3298 27.79 26.4498 26.17 24.9898C25.18 24.0898 24.04 23.3798 22.83 22.8798C25.03 21.4498 26.49 18.9698 26.49 16.1498C26.49 11.7198 22.89 8.11977 18.46 8.11977C14.03 8.11977 10.43 11.7198 10.43 16.1498C10.43 18.9698 11.89 21.4498 14.09 22.8798C12.87 23.3798 11.74 24.0898 10.75 24.9898C9.13 26.4598 7.97 28.3298 7.39 30.3998C4.18 27.4198 2.17 23.1698 2.17 18.4598C2.16 9.47977 9.47 2.16977 18.46 2.16977C27.45 2.16977 34.75 9.47977 34.75 18.4598C34.75 23.1698 32.74 27.4198 29.53 30.3998ZM12.59 16.1498C12.59 12.9098 15.22 10.2798 18.46 10.2798C21.7 10.2798 24.33 12.9098 24.33 16.1498C24.33 19.3898 21.7 22.0198 18.46 22.0198C15.22 22.0198 12.59 19.3898 12.59 16.1498ZM9.25 31.9098C10.02 27.4698 13.87 24.1898 18.45 24.1898C23.03 24.1898 26.88 27.4698 27.65 31.9098C25.03 33.7098 21.86 34.7698 18.45 34.7698C15.04 34.7698 11.87 33.7098 9.25 31.9098ZM31.51 5.41977C28.02 1.92977 23.39 0.00976562 18.46 0.00976562C13.53 0.00976562 8.89 1.92977 5.41 5.41977C1.92 8.89977 0 13.5398 0 18.4698C0 23.3998 1.92 28.0298 5.41 31.5198C8.9 35.0098 13.53 36.9298 18.46 36.9298C23.39 36.9298 28.03 35.0098 31.51 31.5198C35 28.0298 36.92 23.3998 36.92 18.4698C36.92 13.5398 35 8.89977 31.51 5.41977Z" fill="white"/>
</svg>
