<svg width="36" height="36" viewBox="0 0 36 36" fill="none" xmlns="http://www.w3.org/2000/svg">
<g clip-path="url(#clip0_1_8332)">
<path d="M18.4373 35.9297C15.4214 35.9297 12.9685 33.4768 12.9685 30.4609C12.9685 29.8572 13.4585 29.3672 14.0623 29.3672C14.666 29.3672 15.156 29.8572 15.156 30.4609C15.156 32.2709 16.6273 33.7422 18.4373 33.7422C20.2469 33.7422 21.7185 32.2709 21.7185 30.4609C21.7185 29.8572 22.2085 29.3672 22.8123 29.3672C23.416 29.3672 23.906 29.8572 23.906 30.4609C23.906 33.4768 21.4531 35.9297 18.4373 35.9297Z" fill="white"/>
<path d="M30.4685 31.5547H6.40602C4.99851 31.5547 3.85376 30.4099 3.85376 29.0027C3.85376 28.2558 4.179 27.5487 4.74644 27.063C6.96438 25.189 8.22876 22.465 8.22876 19.579V15.5129C8.22876 9.88396 12.808 5.30469 18.4373 5.30469C24.0662 5.30469 28.6455 9.88396 28.6455 15.5129V19.579C28.6455 22.465 29.9099 25.189 32.1134 27.0528C32.6953 27.5487 33.0205 28.2558 33.0205 29.0027C33.0205 30.4099 31.8758 31.5547 30.4685 31.5547ZM18.4373 7.49219C14.0139 7.49219 10.4163 11.0899 10.4163 15.5129V19.579C10.4163 23.1094 8.86909 26.4432 6.17264 28.7226C6.12164 28.7664 6.04126 28.8569 6.04126 29.0027C6.04126 29.2008 6.20762 29.3672 6.40602 29.3672H30.4685C30.6667 29.3672 30.833 29.2008 30.833 29.0027C30.833 28.8569 30.7529 28.7664 30.7046 28.7255C28.0052 26.4432 26.458 23.1094 26.458 19.579V15.5129C26.458 11.0899 22.8603 7.49219 18.4373 7.49219Z" fill="white"/>
<path d="M18.4373 7.49219C17.8335 7.49219 17.3435 7.00219 17.3435 6.39844V2.02344C17.3435 1.41969 17.8335 0.929688 18.4373 0.929688C19.041 0.929688 19.531 1.41969 19.531 2.02344V6.39844C19.531 7.00219 19.041 7.49219 18.4373 7.49219Z" fill="white"/>
<circle cx="27.5" cy="10.5" r="5.5" fill="#143B23"/>
</g>
<defs>
<clipPath id="clip0_1_8332">
<rect width="35" height="35" fill="white" transform="translate(0.959961 0.929688)"/>
</clipPath>
</defs>
</svg>
