<svg width="33" height="33" viewBox="0 0 33 33" fill="none" xmlns="http://www.w3.org/2000/svg">
<path d="M13.6473 23.7095C11.0648 23.7095 8.68943 22.7031 6.85884 20.8959C3.13229 17.1624 3.13229 11.0697 6.85884 7.29289C8.65674 5.49648 11.0648 4.49005 13.6473 4.49005C16.2297 4.49005 18.6051 5.49648 20.4466 7.29289C22.2881 9.08931 23.247 11.5026 23.247 14.089C23.247 16.6754 22.2445 19.0453 20.4466 20.885C18.6487 22.7248 16.197 23.6987 13.6473 23.6987M31.9205 29.8888L24.0751 22.0322C28.0196 16.9026 27.6273 9.47889 22.8874 4.78224C20.3049 2.20666 16.9707 0.929688 13.6037 0.929688C10.2367 0.929688 6.89153 2.20666 4.3091 4.79306C-0.823085 9.93341 -0.823085 18.2662 4.3091 23.3957C6.89153 25.9821 10.2258 27.2591 13.6037 27.2591C16.4041 27.2591 19.2153 26.3825 21.5362 24.5861L29.4252 32.3994C29.7739 32.7457 30.2097 32.9297 30.7001 32.9297C31.1359 32.9297 31.6154 32.7565 31.9749 32.3994C32.6287 31.7393 32.6287 30.603 31.9314 29.8996" fill="white"/>
</svg>
