<svg width="17" height="18" viewBox="0 0 17 18" fill="none" xmlns="http://www.w3.org/2000/svg">
<path d="M8.27052 15.7663C4.5334 15.7663 1.50279 12.7371 1.50279 9.00001C1.50279 5.2629 4.5334 2.23376 8.27052 2.23376C12.0076 2.23376 15.0382 5.2629 15.0382 9.00148C15.0338 12.7371 12.0062 15.7633 8.27052 15.7677M8.27052 0.729492C3.70326 0.729492 0 4.43128 0 9.00001C0 13.5687 3.70326 17.2705 8.27052 17.2705C12.8378 17.2705 16.541 13.5687 16.541 9.00001C16.5366 4.43422 12.8363 0.73538 8.27052 0.729492Z" fill="#F7A600"/>
<path d="M9.02258 8.68922V4.48846C9.02258 4.07339 8.68551 3.73633 8.27044 3.73633C7.85537 3.73633 7.51831 4.07339 7.51831 4.48846V8.99979C7.51831 9.19996 7.59779 9.38984 7.73762 9.53114L9.99402 11.7875C10.2928 12.076 10.7697 12.0672 11.0582 11.7684C11.3378 11.477 11.3378 11.0148 11.0582 10.7234L9.02258 8.68922Z" fill="#F7A600"/>
</svg>
