<svg width="48" height="48" viewBox="0 0 48 48" fill="none" xmlns="http://www.w3.org/2000/svg">
<path fill-rule="evenodd" clip-rule="evenodd" d="M10.1723 21.3796C10.5908 21.0746 10.6827 20.4882 10.3777 20.0698C9.543 18.9246 9.05078 17.5153 9.05078 15.9882C9.05078 12.1567 12.1568 9.05071 15.9883 9.05071C18.4558 9.05071 20.6233 10.3383 21.8544 12.2827C22.1314 12.7201 22.7106 12.8502 23.148 12.5733C23.5855 12.2963 23.7156 11.7171 23.4386 11.2797C21.8782 8.81521 19.125 7.17571 15.9883 7.17571C11.1213 7.17571 7.17578 11.1212 7.17578 15.9882C7.17578 17.9254 7.80182 19.719 8.86252 21.1742C9.1675 21.5926 9.75393 21.6846 10.1723 21.3796Z" fill="#F7A600"/>
<path fill-rule="evenodd" clip-rule="evenodd" d="M0 15.9883C0 16.506 0.419733 16.9258 0.937501 16.9258H3.94491C4.46268 16.9258 4.88241 16.506 4.88241 15.9883C4.88241 15.4705 4.46268 15.0508 3.94491 15.0508H0.937501C0.419733 15.0508 0 15.4705 0 15.9883Z" fill="#F7A600"/>
<path fill-rule="evenodd" clip-rule="evenodd" d="M8.13515 8.13557C8.50127 7.76945 8.50127 7.17586 8.13515 6.80974L6.00862 4.68321C5.6425 4.31709 5.04891 4.31709 4.68279 4.68321C4.31667 5.04933 4.31667 5.64292 4.68279 6.00904L6.80932 8.13557C7.17544 8.50169 7.76903 8.50169 8.13515 8.13557Z" fill="#F7A600"/>
<path fill-rule="evenodd" clip-rule="evenodd" d="M15.9883 4.88281C16.506 4.88281 16.9258 4.46308 16.9258 3.94531V0.937903C16.9258 0.420136 16.506 0.000402451 15.9883 0.000402451C15.4705 0.000402451 15.0508 0.420136 15.0508 0.937903V3.94531C15.0508 4.46308 15.4705 4.88281 15.9883 4.88281Z" fill="#F7A600"/>
<path fill-rule="evenodd" clip-rule="evenodd" d="M23.8415 8.13557C24.2076 8.50169 24.8012 8.50169 25.1673 8.13557L27.2938 6.00904C27.66 5.64292 27.66 5.04933 27.2938 4.68321C26.9277 4.31709 26.3341 4.31709 25.968 4.68321L23.8415 6.80974C23.4754 7.17586 23.4754 7.76945 23.8415 8.13557Z" fill="#F7A600"/>
<path fill-rule="evenodd" clip-rule="evenodd" d="M14.5647 33.4795C10.8132 33.4795 7.77197 30.4383 7.77197 26.6867C7.77197 22.9352 10.8132 19.894 14.5647 19.894C15.5054 19.894 16.3992 20.0848 17.2114 20.4287C17.4906 20.5469 17.8097 20.5228 18.068 20.364C18.3263 20.2051 18.4918 19.9312 18.5123 19.6286C18.808 15.2559 22.4493 11.7999 26.8974 11.7999C27.8016 11.7999 28.6707 11.9423 29.4845 12.2053C29.9772 12.3645 30.5057 12.0942 30.6649 11.6015C30.8241 11.1088 30.5537 10.5803 30.061 10.4211C29.0632 10.0987 27.9997 9.92487 26.8974 9.92487C21.8677 9.92487 17.6829 13.5366 16.7926 18.3083C16.0811 18.1195 15.3342 18.019 14.5647 18.019C9.77768 18.019 5.89697 21.8997 5.89697 26.6867C5.89697 31.4738 9.77768 35.3545 14.5647 35.3545H39.3321C44.1192 35.3545 47.9999 31.4738 47.9999 26.6867C47.9999 21.8997 44.1192 18.019 39.3321 18.019C38.527 18.019 37.7473 18.1297 37.0072 18.336C36.9043 17.7761 36.7561 17.2319 36.5663 16.7075C36.3902 16.2206 35.8527 15.9686 35.3659 16.1448C34.879 16.3209 34.627 16.8584 34.8032 17.3452C35.0679 18.0773 35.2341 18.857 35.2851 19.669C35.3043 19.9748 35.4717 20.2519 35.7334 20.4112C35.9951 20.5704 36.3182 20.5918 36.5986 20.4683C37.435 20.0999 38.3586 19.894 39.3321 19.894C43.0837 19.894 46.1249 22.9352 46.1249 26.6867C46.1249 30.4383 43.0837 33.4795 39.3321 33.4795H14.5647Z" fill="#F7A600"/>
<path fill-rule="evenodd" clip-rule="evenodd" d="M11.9587 39.2801C12.3248 39.6462 12.9184 39.6462 13.2845 39.2801L17.4843 35.0803C17.8504 34.7142 17.8504 34.1206 17.4843 33.7545C17.1182 33.3883 16.5246 33.3883 16.1585 33.7545L11.9587 37.9543C11.5926 38.3204 11.5926 38.914 11.9587 39.2801Z" fill="#F7A600"/>
<path fill-rule="evenodd" clip-rule="evenodd" d="M21.7458 39.2801C22.1119 39.6462 22.7055 39.6462 23.0716 39.2801L27.2714 35.0803C27.6375 34.7142 27.6375 34.1206 27.2714 33.7545C26.9053 33.3883 26.3117 33.3883 25.9456 33.7545L21.7458 37.9543C21.3797 38.3204 21.3797 38.914 21.7458 39.2801Z" fill="#F7A600"/>
<path fill-rule="evenodd" clip-rule="evenodd" d="M31.5329 39.2801C31.899 39.6462 32.4926 39.6462 32.8587 39.2801L37.0585 35.0803C37.4246 34.7142 37.4246 34.1206 37.0585 33.7545C36.6924 33.3883 36.0988 33.3883 35.7327 33.7545L31.5329 37.9543C31.1668 38.3204 31.1668 38.914 31.5329 39.2801Z" fill="#F7A600"/>
<path fill-rule="evenodd" clip-rule="evenodd" d="M11.6359 47.7254C12.002 48.0915 12.5956 48.0915 12.9617 47.7254L17.1616 43.5256C17.5277 43.1595 17.5277 42.5659 17.1616 42.1998C16.7954 41.8337 16.2018 41.8337 15.8357 42.1998L11.6359 46.3996C11.2698 46.7657 11.2698 47.3593 11.6359 47.7254Z" fill="#F7A600"/>
<path fill-rule="evenodd" clip-rule="evenodd" d="M21.423 47.7254C21.7891 48.0915 22.3827 48.0915 22.7489 47.7254L26.9487 43.5256C27.3148 43.1595 27.3148 42.5659 26.9487 42.1998C26.5826 41.8337 25.989 41.8337 25.6228 42.1998L21.423 46.3996C21.0569 46.7657 21.0569 47.3593 21.423 47.7254Z" fill="#F7A600"/>
<path fill-rule="evenodd" clip-rule="evenodd" d="M31.2106 47.7254C31.5767 48.0915 32.1703 48.0915 32.5364 47.7254L36.7363 43.5256C37.1024 43.1595 37.1024 42.5659 36.7363 42.1998C36.3701 41.8337 35.7766 41.8337 35.4104 42.1998L31.2106 46.3996C30.8445 46.7657 30.8445 47.3593 31.2106 47.7254Z" fill="#F7A600"/>
</svg>
