<svg width="26" height="32" viewBox="0 0 26 32" fill="none" xmlns="http://www.w3.org/2000/svg">
<path d="M13.0002 11.6729C12.2487 11.6729 11.7144 11.9902 11.7144 12.4578V18.8203C11.7144 19.221 12.2488 19.6218 13.0002 19.6218C13.7183 19.6218 14.3028 19.221 14.3028 18.8203V12.4578C14.3028 11.9902 13.7183 11.6729 13.0002 11.6729Z" fill="#F7A600"/>
<path d="M13.0002 7.74902C12.2321 7.74902 11.6309 8.3001 11.6309 8.93468C11.6309 9.56926 12.2321 10.1371 13.0002 10.1371C13.7518 10.1371 14.3529 9.56926 14.3529 8.93468C14.3529 8.30016 13.7517 7.74902 13.0002 7.74902Z" fill="#F7A600"/>
<path d="M13 0.873047C5.81443 0.873047 0 6.68452 0 13.8655C0 19.7292 3.86059 24.598 9.06555 26.2515L12.022 30.6093C12.2419 30.9335 12.6082 31.1276 13 31.1276C13.3918 31.1276 13.7581 30.9335 13.978 30.6093L16.9345 26.2515C22.1417 24.5972 26 19.7267 26 13.8655C26 6.67997 20.1809 0.873047 13 0.873047ZM15.8745 24.1016C15.6053 24.1769 15.3716 24.3451 15.2147 24.5763L13 27.8407L10.7853 24.5764C10.6284 24.3451 10.3947 24.1769 10.1255 24.1017C5.695 22.8628 2.36364 18.7883 2.36364 13.8655C2.36364 8.00473 7.13511 3.23668 13 3.23668C18.8649 3.23668 23.6364 8.00473 23.6364 13.8655C23.6364 18.7932 20.3001 22.8642 15.8745 24.1016Z" fill="#F7A600"/>
</svg>
