<svg width="22" height="22" viewBox="0 0 22 22" fill="none" xmlns="http://www.w3.org/2000/svg">
<g clip-path="url(#clip0_1_7955)">
<path d="M18.2443 2.20099H14.2995C13.6926 2.20099 13.2 1.7064 13.2 1.09951C13.2 0.492611 13.6926 0 14.2995 0H20.8985C21.5054 0 22 0.492611 22 1.09951V7.69852C22 8.30542 21.5054 8.8 20.8985 8.8C20.2916 8.8 19.799 8.30542 19.799 7.69852V3.75369L11.7773 11.7773C11.3478 12.2049 10.6502 12.2049 10.2207 11.7773C9.79113 11.3478 9.79113 10.6502 10.2207 10.2207L18.2443 2.20099ZM9.89951 0H4.4C1.97044 0 0 1.97044 0 4.4V17.6C0 20.0296 1.97044 22 4.4 22H17.6C20.0296 22 22 20.0296 22 17.6V12.1005C22 11.4936 21.5054 10.999 20.8985 10.999C20.2916 10.999 19.799 11.4936 19.799 12.1005V17.6C19.799 18.8158 18.8138 19.801 17.598 19.801H4.4C3.18424 19.801 2.20099 18.8158 2.20099 17.6V4.4C2.20099 3.18424 3.18424 2.20099 4.4 2.20099H9.89951C10.5064 2.20099 10.999 1.7064 10.999 1.09951C10.999 0.492611 10.5064 0 9.89951 0Z" fill="#153B23"/>
</g>
<defs>
<clipPath id="clip0_1_7955">
<rect width="22" height="22" fill="white"/>
</clipPath>
</defs>
</svg>
