<svg width="14" height="20" viewBox="0 0 14 20" fill="none" xmlns="http://www.w3.org/2000/svg">
<path d="M6.99946 18.068C4.89093 15.5635 1.25975 10.6232 1.25975 7.3354C1.25975 4.0476 3.83506 1.59676 6.99946 1.59676C10.1639 1.59676 12.7392 4.17207 12.7392 7.33647C12.7392 10.5009 9.10799 15.5635 6.99946 18.0691M6.99946 0.335938C3.13973 0.335938 0 3.47674 0 7.33647C0 12.1255 6.26443 19.1582 6.53054 19.4554C6.78164 19.7344 7.21836 19.7344 7.46838 19.4554C7.73557 19.1582 14 12.1255 14 7.33647C14 3.47674 10.8592 0.335938 6.99946 0.335938Z" fill="#F7A600"/>
<path d="M6.99951 9.59709C5.75264 9.59709 4.73861 8.58306 4.73861 7.33618C4.73861 6.08931 5.75264 5.07421 6.99951 5.07421C8.24639 5.07421 9.26042 6.08823 9.26042 7.33618C9.26042 8.58413 8.24639 9.59709 6.99951 9.59709ZM6.99951 3.81445C5.05838 3.81445 3.47778 5.39397 3.47778 7.33618C3.47778 9.27839 5.05838 10.8568 6.99951 10.8568C8.94065 10.8568 10.5212 9.27732 10.5212 7.33618C10.5212 5.39505 8.94065 3.81445 6.99951 3.81445Z" fill="#F7A600"/>
</svg>
