<svg width="31" height="28" viewBox="0 0 31 28" fill="none" xmlns="http://www.w3.org/2000/svg">
<path d="M13.8047 5.57031C14.1391 5.57031 14.4102 5.29918 14.4102 4.96484V3.02734C14.4102 1.35807 13.0521 0 11.3828 0H3.02734C1.35807 0 0 1.35807 0 3.02734V10.2922C0 11.9615 1.35807 13.3196 3.02734 13.3196H6.94424C6.80644 17.8428 5.09024 20.1942 1.70942 20.5018C1.39754 20.5302 1.15881 20.7916 1.15881 21.1048V27.125C1.15881 27.2915 1.22735 27.4506 1.34832 27.565C1.46106 27.6715 1.60994 27.7305 1.76421 27.7305C1.77554 27.7305 1.78692 27.7302 1.79824 27.7295C5.97041 27.4948 9.15535 26.059 11.2647 23.4617C13.3519 20.8918 14.4102 17.1365 14.4102 12.3002V10.1315C14.4102 9.79715 14.1391 9.52602 13.8047 9.52602C13.4703 9.52602 13.1992 9.79715 13.1992 10.1315V12.3002C13.1992 21.1791 9.65511 25.8222 2.3698 26.4741V21.6402C4.2111 21.3539 5.63534 20.4968 6.60851 19.0875C7.64077 17.5926 8.1642 15.4483 8.1642 12.7141C8.1642 12.3798 7.89313 12.1086 7.55873 12.1086H3.02734C2.02578 12.1086 1.21094 11.2938 1.21094 10.2922V3.02734C1.21094 2.02578 2.02578 1.21094 3.02734 1.21094H11.3828C12.3844 1.21094 13.1992 2.02578 13.1992 3.02734V4.96484C13.1992 5.29918 13.4703 5.57031 13.8047 5.57031Z" fill="white"/>
<path d="M27.9727 0H19.6172C17.9479 0 16.5898 1.35807 16.5898 3.02734V10.2922C16.5898 11.9615 17.9479 13.3196 19.6172 13.3196H23.5341C23.3963 17.8428 21.6801 20.1942 18.2993 20.5018C17.9874 20.5302 17.7487 20.7916 17.7487 21.1048V27.125C17.7487 27.2915 17.8172 27.4506 17.9382 27.565C18.0509 27.6716 18.1998 27.7305 18.3541 27.7305C18.3654 27.7305 18.3768 27.7302 18.3881 27.7295C22.5603 27.4948 25.7452 26.059 27.8545 23.4617C29.9417 20.8918 31 17.1365 31 12.3002V3.02734C31 1.35807 29.6419 0 27.9727 0ZM29.7891 12.3002C29.7891 21.1791 26.245 25.8222 18.9596 26.4741V21.6402C20.8009 21.3539 22.2252 20.4968 23.1983 19.0875C24.2306 17.5926 24.754 15.4484 24.754 12.7141C24.754 12.3798 24.4829 12.1086 24.1485 12.1086H19.6172C18.6156 12.1086 17.8008 11.2938 17.8008 10.2922V3.02734C17.8008 2.02578 18.6156 1.21094 19.6172 1.21094H26.8828V5.69346C26.8828 6.0278 27.1539 6.29893 27.4883 6.29893C27.8227 6.29893 28.0938 6.0278 28.0938 5.69346V1.21542C29.039 1.27802 29.7891 2.06653 29.7891 3.02734V12.3002Z" fill="white"/>
<path d="M27.4883 7.19043C27.1539 7.19043 26.8828 7.46453 26.8828 7.79887C26.8828 8.1332 27.1539 8.40433 27.4883 8.40433C27.8226 8.40433 28.0938 8.1332 28.0938 7.79887V7.79287C28.0938 7.45853 27.8227 7.19043 27.4883 7.19043Z" fill="white"/>
<path d="M13.8047 6.94238C13.4703 6.94238 13.1992 7.21351 13.1992 7.54785V7.56051C13.1992 7.89485 13.4703 8.16597 13.8047 8.16597C14.1391 8.16597 14.4102 7.89485 14.4102 7.56051V7.54785C14.4102 7.21351 14.1391 6.94238 13.8047 6.94238Z" fill="white"/>
</svg>
